# xmcd CD database file
#
# Track frame offsets:
#	183
#	30395
#	58405
#	79105
#	97028
#	122003
#	148705
#	180175
#	199915
#	218258
#	246850
#	260468
#	279260
#	292128
#	298640
#	308058
#
# Disc length: 4443 seconds
#
# Revision: 0
# Processed by: cddbd v1.5.1PL0 Copyright (c) Steve Scherf et al.
# Submitted via: CDex 1.50
#
DISCID=ec115910
DTITLE=Prince - Black album
DYEAR=1900
DGENRE=Rhythmic Soul
TTITLE0=LE GRIND
TTITLE1=CINDY C.
TTITLE2=DEAD ON IT
TTITLE3=WHEN 2 R IN LOVE
TTITLE4=BOB GEORGE
TTITLE5=SUPERFUNKYCALIFRAGISEXY
TTITLE6=2 NIGS UNITED 4 WEST COMPTON
TTITLE7=ROCKHARD IN A FUNKY PLACE
TTITLE8=WITNESS
TTITLE9=WONDERFUL ASS
TTITLE10=IF U BREAK MY HEART 1 MORE TIME
TTITLE11=MOVIESTAR
TTITLE12=SHE WANTS A PALCE IN HEAVEN
TTITLE13=GIRL OF MY DREAMS
TTITLE14=CAN'T STOP
TTITLE15=WE CAN FUNK
EXTD=
EXTT0=
EXTT1=
EXTT2=
EXTT3=
EXTT4=
EXTT5=
EXTT6=
EXTT7=
EXTT8=
EXTT9=
EXTT10=
EXTT11=
EXTT12=
EXTT13=
EXTT14=
EXTT15=
PLAYORDER=
